<?xml version="1.0" standalone="no"?>
<!DOCTYPE svg PUBLIC "-//W3C//DTD SVG 20010904//EN"
 "http://www.w3.org/TR/2001/REC-SVG-20010904/DTD/svg10.dtd">
<svg version="1.0" xmlns="http://www.w3.org/2000/svg"
 width="125.000000pt" height="125.000000pt" viewBox="0 0 125.000000 125.000000"
 preserveAspectRatio="xMidYMid meet">

<g transform="translate(0.000000,125.000000) scale(0.100000,-0.100000)"
fill="#000000" stroke="none">
<path d="M605 793 c-37 -9 -115 -45 -115 -54 0 -4 12 -17 27 -29 48 -37 123
-3 123 55 0 19 -3 34 -7 34 -5 -1 -17 -4 -28 -6z"/>
<path d="M655 788 c-15 -52 -12 -69 22 -99 26 -22 40 -28 56 -23 21 6 21 6 -2
-13 -16 -13 -22 -26 -18 -36 9 -23 157 -25 157 -3 0 25 -66 68 -92 62 l-23 -6
22 11 c12 6 24 21 26 33 4 18 4 18 6 -4 1 -16 15 -35 37 -52 31 -23 39 -25 62
-16 15 7 31 15 35 19 11 9 -58 86 -95 105 -27 14 -28 13 -29 -8 -1 -22 -1 -22
-8 2 -8 28 -34 38 -104 39 -30 1 -49 -4 -52 -11z"/>
<path d="M253 728 c-72 -35 -16 -109 120 -160 31 -11 57 -24 57 -27 0 -4 -11
-22 -25 -41 -28 -38 -25 -50 15 -50 19 0 36 10 54 31 l26 30 107 -6 c60 -4
137 -2 172 3 55 8 69 6 105 -11 22 -11 44 -25 48 -32 10 -17 45 -8 53 13 3 9
-5 26 -20 42 -23 24 -24 28 -9 34 9 4 27 -1 40 -9 28 -18 31 -9 8 23 -15 22
-20 23 -97 17 -92 -8 -259 7 -357 31 -70 17 -122 44 -184 93 -40 32 -74 38
-113 19z m47 -18 c0 -5 -4 -10 -10 -10 -5 0 -10 5 -10 10 0 6 5 10 10 10 6 0
10 -4 10 -10z"/>
<path d="M446 715 c-10 -7 -15 -19 -11 -24 7 -13 79 -51 95 -51 20 0 10 37
-18 63 -32 31 -40 32 -66 12z"/>
<path d="M588 693 c-28 -12 -38 -22 -38 -38 0 -19 8 -24 57 -34 77 -15 90 -14
96 9 4 15 -5 28 -31 50 -20 17 -39 30 -42 29 -3 -1 -22 -8 -42 -16z"/>
<path d="M913 635 c-49 -21 -40 -35 22 -35 58 0 66 7 37 33 -22 20 -19 20 -59
2z"/>
</g>
</svg>
